<svg width="131" height="28" viewBox="0 0 131 28" fill="none" xmlns="http://www.w3.org/2000/svg">
<path d="M14.0839 27C12.7999 27.24 11.5399 27.342 10.3039 27.306C9.07992 27.282 7.98192 27.06 7.00992 26.64C6.03792 26.208 5.29992 25.53 4.79592 24.606C4.35192 23.766 4.11792 22.908 4.09392 22.032C4.06992 21.156 4.05792 20.166 4.05792 19.062V2.16H8.37792V18.81C8.37792 19.59 8.38392 20.274 8.39592 20.862C8.41992 21.45 8.54592 21.93 8.77392 22.302C9.20592 23.022 9.89592 23.424 10.8439 23.508C11.7919 23.592 12.8719 23.544 14.0839 23.364V27ZM0.529922 10.962V7.56H14.0839V10.962H0.529922ZM26.1178 27.54C24.1498 27.54 22.4218 27.114 20.9338 26.262C19.4458 25.41 18.2818 24.228 17.4418 22.716C16.6138 21.204 16.1998 19.464 16.1998 17.496C16.1998 15.372 16.6078 13.53 17.4238 11.97C18.2398 10.398 19.3738 9.18 20.8258 8.316C22.2778 7.452 23.9578 7.02 25.8658 7.02C27.8818 7.02 29.5918 7.494 30.9958 8.442C32.4118 9.378 33.4618 10.704 34.1458 12.42C34.8298 14.136 35.0878 16.158 34.9198 18.486H30.6178V16.902C30.6058 14.79 30.2338 13.248 29.5018 12.276C28.7698 11.304 27.6178 10.818 26.0458 10.818C24.2698 10.818 22.9498 11.37 22.0858 12.474C21.2218 13.566 20.7898 15.168 20.7898 17.28C20.7898 19.248 21.2218 20.772 22.0858 21.852C22.9498 22.932 24.2098 23.472 25.8658 23.472C26.9338 23.472 27.8518 23.238 28.6198 22.77C29.3998 22.29 29.9998 21.6 30.4198 20.7L34.7038 21.996C33.9598 23.748 32.8078 25.11 31.2478 26.082C29.6998 27.054 27.9898 27.54 26.1178 27.54ZM19.4218 18.486V15.21H32.7958V18.486H19.4218ZM44.0205 27.54C42.6165 27.54 41.4285 27.276 40.4565 26.748C39.4845 26.208 38.7465 25.494 38.2425 24.606C37.7505 23.718 37.5045 22.74 37.5045 21.672C37.5045 20.736 37.6605 19.896 37.9725 19.152C38.2845 18.396 38.7645 17.748 39.4125 17.208C40.0605 16.656 40.9005 16.206 41.9325 15.858C42.7125 15.606 43.6245 15.378 44.6685 15.174C45.7245 14.97 46.8645 14.784 48.0885 14.616C49.3245 14.436 50.6145 14.244 51.9585 14.04L50.4105 14.922C50.4225 13.578 50.1225 12.588 49.5105 11.952C48.8985 11.316 47.8665 10.998 46.4145 10.998C45.5385 10.998 44.6925 11.202 43.8765 11.61C43.0605 12.018 42.4905 12.72 42.1665 13.716L38.2065 12.474C38.6865 10.83 39.5985 9.51 40.9425 8.514C42.2985 7.518 44.1225 7.02 46.4145 7.02C48.1425 7.02 49.6605 7.302 50.9685 7.866C52.2885 8.43 53.2665 9.354 53.9025 10.638C54.2505 11.322 54.4605 12.024 54.5325 12.744C54.6045 13.452 54.6405 14.226 54.6405 15.066V27H50.8425V22.788L51.4725 23.472C50.5965 24.876 49.5705 25.908 48.3945 26.568C47.2305 27.216 45.7725 27.54 44.0205 27.54ZM44.8845 24.084C45.8685 24.084 46.7085 23.91 47.4045 23.562C48.1005 23.214 48.6525 22.788 49.0605 22.284C49.4805 21.78 49.7625 21.306 49.9065 20.862C50.1345 20.31 50.2605 19.68 50.2845 18.972C50.3205 18.252 50.3385 17.67 50.3385 17.226L51.6705 17.622C50.3625 17.826 49.2405 18.006 48.3045 18.162C47.3685 18.318 46.5645 18.468 45.8925 18.612C45.2205 18.744 44.6265 18.894 44.1105 19.062C43.6065 19.242 43.1805 19.452 42.8325 19.692C42.4845 19.932 42.2145 20.208 42.0225 20.52C41.8425 20.832 41.7525 21.198 41.7525 21.618C41.7525 22.098 41.8725 22.524 42.1125 22.896C42.3525 23.256 42.7005 23.544 43.1565 23.76C43.6245 23.976 44.2005 24.084 44.8845 24.084ZM82.6726 27V15.192C82.6726 13.86 82.3426 12.822 81.6826 12.078C81.0226 11.322 80.1286 10.944 79.0006 10.944C78.3046 10.944 77.6806 11.106 77.1286 11.43C76.5766 11.742 76.1386 12.21 75.8146 12.834C75.4906 13.446 75.3286 14.178 75.3286 15.03L73.4026 13.896C73.3906 12.552 73.6906 11.37 74.3026 10.35C74.9266 9.318 75.7666 8.514 76.8226 7.938C77.8786 7.362 79.0546 7.074 80.3506 7.074C82.4986 7.074 84.1426 7.722 85.2826 9.018C86.4346 10.302 87.0106 11.994 87.0106 14.094V27H82.6726ZM59.2906 27V7.56H63.1246V13.59H63.6646V27H59.2906ZM71.0086 27V15.246C71.0086 13.89 70.6786 12.834 70.0186 12.078C69.3586 11.322 68.4586 10.944 67.3186 10.944C66.2146 10.944 65.3266 11.322 64.6546 12.078C63.9946 12.834 63.6646 13.818 63.6646 15.03L61.7206 13.734C61.7206 12.474 62.0326 11.34 62.6566 10.332C63.2806 9.324 64.1206 8.532 65.1766 7.956C66.2446 7.368 67.4386 7.074 68.7586 7.074C70.2106 7.074 71.4226 7.386 72.3946 8.01C73.3786 8.622 74.1106 9.462 74.5906 10.53C75.0826 11.586 75.3286 12.78 75.3286 14.112V27H71.0086Z" fill="#000A1A"/>
<path d="M90.9855 26.964V23.184L102.074 13.302C102.938 12.534 103.538 11.808 103.874 11.124C104.21 10.44 104.378 9.78 104.378 9.144C104.378 8.28 104.192 7.512 103.82 6.84C103.448 6.156 102.932 5.616 102.272 5.22C101.624 4.824 100.874 4.626 100.022 4.626C99.1215 4.626 98.3235 4.836 97.6275 5.256C96.9435 5.664 96.4095 6.21 96.0255 6.894C95.6415 7.578 95.4615 8.316 95.4855 9.108H91.0215C91.0215 7.38 91.4055 5.874 92.1735 4.59C92.9535 3.306 94.0215 2.31 95.3775 1.602C96.7455 0.894 98.3235 0.539999 100.112 0.539999C101.768 0.539999 103.256 0.911999 104.576 1.656C105.896 2.388 106.934 3.408 107.69 4.716C108.446 6.012 108.824 7.506 108.824 9.198C108.824 10.434 108.656 11.472 108.32 12.312C107.984 13.152 107.48 13.926 106.808 14.634C106.148 15.342 105.326 16.128 104.342 16.992L96.4755 23.958L96.0795 22.878H108.824V26.964H90.9855ZM123.212 27V22.716H111.728V18.666L120.026 1.08H124.976L116.678 18.666H123.212V11.916H127.604V18.666H130.034V22.716H127.604V27H123.212Z" fill="#0761FF"/>
</svg>
